<?xml version="1.0" standalone="no"?><!DOCTYPE svg PUBLIC "-//W3C//DTD SVG 1.1//EN" "http://www.w3.org/Graphics/SVG/1.1/DTD/svg11.dtd"><svg t="1754752791050" class="icon" viewBox="0 0 1029 1024" version="1.1" xmlns="http://www.w3.org/2000/svg" p-id="5626" xmlns:xlink="http://www.w3.org/1999/xlink" width="200.9765625" height="200"><path d="M915.911111 1024h-796.444444c-62.577778 0-113.777778-51.2-113.777778-113.777778V113.777778c0-62.577778 51.2-113.777778 113.777778-113.777778h796.444444c62.577778 0 113.777778 51.2 113.777778 113.777778v796.444444c0 62.577778-51.2 113.777778-113.777778 113.777778z" fill="#077AB6" p-id="5627"></path><path d="M312.888889 221.866667c0 45.511111-34.133333 79.644444-85.333333 79.644444-56.888889 0-85.333333-34.133333-85.333334-79.644444 0-45.511111 34.133333-79.644444 85.333334-79.644445s79.644444 34.133333 85.333333 79.644445z m-170.666667 659.911111V364.088889h159.288889v517.688889H142.222222z m261.688889-352.711111c0-62.577778 0-119.466667-5.688889-164.977778h142.222222l5.688889 73.955555h5.688889c22.755556-34.133333 73.955556-85.333333 159.288889-85.333333 108.088889 0 187.733333 68.266667 187.733333 221.866667v307.2H739.555556v-284.444445c0-68.266667-22.755556-113.777778-79.644445-113.777777-45.511111 0-68.266667 28.444444-85.333333 62.577777-11.377778 11.377778-11.377778 22.755556-11.377778 39.822223v295.822222H403.911111V529.066667z" fill="#FFFFFF" p-id="5628"></path></svg>